<mxfile host="Electron" modified="2023-04-05T23:32:31.968Z" agent="Mozilla/5.0 (Windows NT 10.0; Win64; x64) AppleWebKit/537.36 (KHTML, like Gecko) draw.io/21.1.2 Chrome/106.0.5249.199 Electron/21.4.3 Safari/537.36" etag="AGpRSUiUgBAi3kv1p1I_" version="21.1.2" type="device">
  <diagram name="Page-1" id="2YBvvXClWsGukQMizWep">
    <mxGraphModel dx="980" dy="562" grid="1" gridSize="10" guides="1" tooltips="1" connect="1" arrows="1" fold="1" page="1" pageScale="1" pageWidth="850" pageHeight="1100" math="0" shadow="0">
      <root>
        <mxCell id="0" />
        <mxCell id="1" parent="0" />
        <mxCell id="E98mA0hf0uhJdHvam1qt-5" value="TuneTidy user" style="shape=umlActor;verticalLabelPosition=bottom;verticalAlign=top;html=1;outlineConnect=0;" parent="1" vertex="1">
          <mxGeometry x="160" y="30" width="30" height="60" as="geometry" />
        </mxCell>
        <mxCell id="E98mA0hf0uhJdHvam1qt-7" value="PickPlaylist" style="html=1;whiteSpace=wrap;" parent="1" vertex="1">
          <mxGeometry x="260" y="35" width="110" height="50" as="geometry" />
        </mxCell>
        <mxCell id="E98mA0hf0uhJdHvam1qt-9" value="PlaylistEditor" style="html=1;whiteSpace=wrap;" parent="1" vertex="1">
          <mxGeometry x="540" y="35" width="110" height="50" as="geometry" />
        </mxCell>
        <mxCell id="E98mA0hf0uhJdHvam1qt-12" value="" style="endArrow=none;dashed=1;html=1;rounded=0;" parent="1" edge="1">
          <mxGeometry width="50" height="50" relative="1" as="geometry">
            <mxPoint x="175" y="360" as="sourcePoint" />
            <mxPoint x="175" y="120" as="targetPoint" />
          </mxGeometry>
        </mxCell>
        <mxCell id="E98mA0hf0uhJdHvam1qt-13" value="" style="endArrow=none;dashed=1;html=1;rounded=0;entryX=0.5;entryY=1;entryDx=0;entryDy=0;" parent="1" source="j307jOaWjlisyHLYuBps-31" target="E98mA0hf0uhJdHvam1qt-7" edge="1">
          <mxGeometry width="50" height="50" relative="1" as="geometry">
            <mxPoint x="315" y="421.9047619047619" as="sourcePoint" />
            <mxPoint x="314.76" y="120" as="targetPoint" />
          </mxGeometry>
        </mxCell>
        <mxCell id="E98mA0hf0uhJdHvam1qt-15" value="" style="endArrow=none;dashed=1;html=1;rounded=0;entryX=0.5;entryY=1;entryDx=0;entryDy=0;" parent="1" source="j307jOaWjlisyHLYuBps-35" target="E98mA0hf0uhJdHvam1qt-9" edge="1">
          <mxGeometry width="50" height="50" relative="1" as="geometry">
            <mxPoint x="595" y="420" as="sourcePoint" />
            <mxPoint x="600" y="85" as="targetPoint" />
          </mxGeometry>
        </mxCell>
        <mxCell id="E98mA0hf0uhJdHvam1qt-29" value="SearchBar" style="html=1;whiteSpace=wrap;" parent="1" vertex="1">
          <mxGeometry x="400" y="35" width="110" height="50" as="geometry" />
        </mxCell>
        <mxCell id="E98mA0hf0uhJdHvam1qt-30" value="" style="endArrow=none;dashed=1;html=1;rounded=0;entryX=0.5;entryY=1;entryDx=0;entryDy=0;" parent="1" source="j307jOaWjlisyHLYuBps-32" target="E98mA0hf0uhJdHvam1qt-29" edge="1">
          <mxGeometry width="50" height="50" relative="1" as="geometry">
            <mxPoint x="455" y="420" as="sourcePoint" />
            <mxPoint x="460" y="85" as="targetPoint" />
          </mxGeometry>
        </mxCell>
        <mxCell id="4cCIE7STCx5JLXTlckev-3" value="Spotify" style="html=1;whiteSpace=wrap;" parent="1" vertex="1">
          <mxGeometry x="680" y="35" width="110" height="50" as="geometry" />
        </mxCell>
        <mxCell id="4cCIE7STCx5JLXTlckev-4" value="" style="endArrow=none;dashed=1;html=1;rounded=0;entryX=0.5;entryY=1;entryDx=0;entryDy=0;" parent="1" source="j307jOaWjlisyHLYuBps-37" target="4cCIE7STCx5JLXTlckev-3" edge="1">
          <mxGeometry width="50" height="50" relative="1" as="geometry">
            <mxPoint x="735" y="420" as="sourcePoint" />
            <mxPoint x="740" y="85" as="targetPoint" />
          </mxGeometry>
        </mxCell>
        <mxCell id="j307jOaWjlisyHLYuBps-1" value="" style="endArrow=classic;html=1;rounded=0;" edge="1" parent="1">
          <mxGeometry relative="1" as="geometry">
            <mxPoint x="180" y="140" as="sourcePoint" />
            <mxPoint x="310" y="140" as="targetPoint" />
          </mxGeometry>
        </mxCell>
        <mxCell id="j307jOaWjlisyHLYuBps-2" value="&lt;span style=&quot;font-size: 8px;&quot;&gt;Direct to by clicking nav link&lt;/span&gt;" style="edgeLabel;resizable=0;html=1;align=center;verticalAlign=middle;" connectable="0" vertex="1" parent="j307jOaWjlisyHLYuBps-1">
          <mxGeometry relative="1" as="geometry" />
        </mxCell>
        <mxCell id="j307jOaWjlisyHLYuBps-11" value="" style="endArrow=classic;html=1;rounded=0;dashed=1;" edge="1" parent="1">
          <mxGeometry relative="1" as="geometry">
            <mxPoint x="450" y="180" as="sourcePoint" />
            <mxPoint x="320" y="180" as="targetPoint" />
          </mxGeometry>
        </mxCell>
        <mxCell id="j307jOaWjlisyHLYuBps-12" value="&lt;span style=&quot;font-size: 8px;&quot;&gt;Display filtered playlists&lt;/span&gt;" style="edgeLabel;resizable=0;html=1;align=center;verticalAlign=middle;" connectable="0" vertex="1" parent="j307jOaWjlisyHLYuBps-11">
          <mxGeometry relative="1" as="geometry" />
        </mxCell>
        <mxCell id="j307jOaWjlisyHLYuBps-15" value="" style="endArrow=classic;html=1;rounded=0;" edge="1" parent="1">
          <mxGeometry relative="1" as="geometry">
            <mxPoint x="180" y="200" as="sourcePoint" />
            <mxPoint x="590" y="200" as="targetPoint" />
          </mxGeometry>
        </mxCell>
        <mxCell id="j307jOaWjlisyHLYuBps-16" value="&lt;span style=&quot;font-size: 8px;&quot;&gt;Chose playlist to sort/edit&lt;/span&gt;" style="edgeLabel;resizable=0;html=1;align=center;verticalAlign=middle;" connectable="0" vertex="1" parent="j307jOaWjlisyHLYuBps-15">
          <mxGeometry relative="1" as="geometry" />
        </mxCell>
        <mxCell id="j307jOaWjlisyHLYuBps-17" value="" style="endArrow=classic;html=1;rounded=0;" edge="1" parent="1">
          <mxGeometry relative="1" as="geometry">
            <mxPoint x="180" y="220" as="sourcePoint" />
            <mxPoint x="590" y="220" as="targetPoint" />
          </mxGeometry>
        </mxCell>
        <mxCell id="j307jOaWjlisyHLYuBps-18" value="&lt;span style=&quot;font-size: 8px;&quot;&gt;Chose sort by type (e.g. Tempo)&lt;/span&gt;" style="edgeLabel;resizable=0;html=1;align=center;verticalAlign=middle;" connectable="0" vertex="1" parent="j307jOaWjlisyHLYuBps-17">
          <mxGeometry relative="1" as="geometry" />
        </mxCell>
        <mxCell id="j307jOaWjlisyHLYuBps-19" value="" style="endArrow=classic;html=1;rounded=0;" edge="1" parent="1">
          <mxGeometry relative="1" as="geometry">
            <mxPoint x="180" y="240" as="sourcePoint" />
            <mxPoint x="590" y="240" as="targetPoint" />
          </mxGeometry>
        </mxCell>
        <mxCell id="j307jOaWjlisyHLYuBps-20" value="&lt;span style=&quot;font-size: 8px;&quot;&gt;Remove song(s)&lt;/span&gt;" style="edgeLabel;resizable=0;html=1;align=center;verticalAlign=middle;" connectable="0" vertex="1" parent="j307jOaWjlisyHLYuBps-19">
          <mxGeometry relative="1" as="geometry" />
        </mxCell>
        <mxCell id="j307jOaWjlisyHLYuBps-21" value="" style="endArrow=classic;html=1;rounded=0;" edge="1" parent="1">
          <mxGeometry relative="1" as="geometry">
            <mxPoint x="180" y="260" as="sourcePoint" />
            <mxPoint x="590" y="260" as="targetPoint" />
          </mxGeometry>
        </mxCell>
        <mxCell id="j307jOaWjlisyHLYuBps-22" value="&lt;span style=&quot;font-size: 8px;&quot;&gt;Override/New Paylist button pressed&lt;/span&gt;" style="edgeLabel;resizable=0;html=1;align=center;verticalAlign=middle;" connectable="0" vertex="1" parent="j307jOaWjlisyHLYuBps-21">
          <mxGeometry relative="1" as="geometry" />
        </mxCell>
        <mxCell id="j307jOaWjlisyHLYuBps-23" value="" style="endArrow=classic;html=1;rounded=0;" edge="1" parent="1">
          <mxGeometry relative="1" as="geometry">
            <mxPoint x="600" y="280" as="sourcePoint" />
            <mxPoint x="730" y="280" as="targetPoint" />
          </mxGeometry>
        </mxCell>
        <mxCell id="j307jOaWjlisyHLYuBps-24" value="&lt;span style=&quot;font-size: 8px;&quot;&gt;Send new playlist to&lt;br&gt;users Spotify account&lt;/span&gt;" style="edgeLabel;resizable=0;html=1;align=center;verticalAlign=middle;" connectable="0" vertex="1" parent="j307jOaWjlisyHLYuBps-23">
          <mxGeometry relative="1" as="geometry" />
        </mxCell>
        <mxCell id="j307jOaWjlisyHLYuBps-25" value="Obervable" style="html=1;whiteSpace=wrap;" vertex="1" parent="1">
          <mxGeometry x="820" y="35" width="110" height="50" as="geometry" />
        </mxCell>
        <mxCell id="j307jOaWjlisyHLYuBps-26" value="" style="endArrow=none;dashed=1;html=1;rounded=0;entryX=0.5;entryY=1;entryDx=0;entryDy=0;" edge="1" target="j307jOaWjlisyHLYuBps-25" parent="1" source="j307jOaWjlisyHLYuBps-39">
          <mxGeometry width="50" height="50" relative="1" as="geometry">
            <mxPoint x="875" y="420" as="sourcePoint" />
            <mxPoint x="880" y="85" as="targetPoint" />
          </mxGeometry>
        </mxCell>
        <mxCell id="j307jOaWjlisyHLYuBps-27" value="" style="endArrow=classic;html=1;rounded=0;" edge="1" parent="1">
          <mxGeometry relative="1" as="geometry">
            <mxPoint x="740" y="300" as="sourcePoint" />
            <mxPoint x="870" y="300" as="targetPoint" />
          </mxGeometry>
        </mxCell>
        <mxCell id="j307jOaWjlisyHLYuBps-28" value="&lt;span style=&quot;font-size: 8px;&quot;&gt;On success of save&lt;/span&gt;" style="edgeLabel;resizable=0;html=1;align=center;verticalAlign=middle;" connectable="0" vertex="1" parent="j307jOaWjlisyHLYuBps-27">
          <mxGeometry relative="1" as="geometry" />
        </mxCell>
        <mxCell id="j307jOaWjlisyHLYuBps-29" value="" style="endArrow=classic;html=1;rounded=0;dashed=1;" edge="1" parent="1">
          <mxGeometry relative="1" as="geometry">
            <mxPoint x="870" y="320" as="sourcePoint" />
            <mxPoint x="180" y="320" as="targetPoint" />
          </mxGeometry>
        </mxCell>
        <mxCell id="j307jOaWjlisyHLYuBps-30" value="&lt;span style=&quot;font-size: 8px;&quot;&gt;Alert user, playlist overriden/created&lt;/span&gt;" style="edgeLabel;resizable=0;html=1;align=center;verticalAlign=middle;" connectable="0" vertex="1" parent="j307jOaWjlisyHLYuBps-29">
          <mxGeometry relative="1" as="geometry" />
        </mxCell>
        <mxCell id="j307jOaWjlisyHLYuBps-32" value="" style="html=1;points=[];perimeter=orthogonalPerimeter;outlineConnect=0;targetShapes=umlLifeline;portConstraint=eastwest;newEdgeStyle={&quot;edgeStyle&quot;:&quot;elbowEdgeStyle&quot;,&quot;elbow&quot;:&quot;vertical&quot;,&quot;curved&quot;:0,&quot;rounded&quot;:0};" vertex="1" parent="1">
          <mxGeometry x="450" y="150" width="10" height="40" as="geometry" />
        </mxCell>
        <mxCell id="j307jOaWjlisyHLYuBps-31" value="" style="html=1;points=[];perimeter=orthogonalPerimeter;outlineConnect=0;targetShapes=umlLifeline;portConstraint=eastwest;newEdgeStyle={&quot;edgeStyle&quot;:&quot;elbowEdgeStyle&quot;,&quot;elbow&quot;:&quot;vertical&quot;,&quot;curved&quot;:0,&quot;rounded&quot;:0};" vertex="1" parent="1">
          <mxGeometry x="310" y="130" width="10" height="60" as="geometry" />
        </mxCell>
        <mxCell id="j307jOaWjlisyHLYuBps-7" value="" style="endArrow=classic;html=1;rounded=0;" edge="1" parent="1">
          <mxGeometry relative="1" as="geometry">
            <mxPoint x="180" y="160" as="sourcePoint" />
            <mxPoint x="450" y="160" as="targetPoint" />
          </mxGeometry>
        </mxCell>
        <mxCell id="j307jOaWjlisyHLYuBps-8" value="&lt;span style=&quot;font-size: 8px;&quot;&gt;Type in the seach bar&lt;/span&gt;" style="edgeLabel;resizable=0;html=1;align=center;verticalAlign=middle;" connectable="0" vertex="1" parent="j307jOaWjlisyHLYuBps-7">
          <mxGeometry relative="1" as="geometry" />
        </mxCell>
        <mxCell id="j307jOaWjlisyHLYuBps-35" value="" style="html=1;points=[];perimeter=orthogonalPerimeter;outlineConnect=0;targetShapes=umlLifeline;portConstraint=eastwest;newEdgeStyle={&quot;edgeStyle&quot;:&quot;elbowEdgeStyle&quot;,&quot;elbow&quot;:&quot;vertical&quot;,&quot;curved&quot;:0,&quot;rounded&quot;:0};" vertex="1" parent="1">
          <mxGeometry x="590" y="190" width="10" height="100" as="geometry" />
        </mxCell>
        <mxCell id="j307jOaWjlisyHLYuBps-37" value="" style="html=1;points=[];perimeter=orthogonalPerimeter;outlineConnect=0;targetShapes=umlLifeline;portConstraint=eastwest;newEdgeStyle={&quot;edgeStyle&quot;:&quot;elbowEdgeStyle&quot;,&quot;elbow&quot;:&quot;vertical&quot;,&quot;curved&quot;:0,&quot;rounded&quot;:0};" vertex="1" parent="1">
          <mxGeometry x="730" y="270" width="10" height="40" as="geometry" />
        </mxCell>
        <mxCell id="j307jOaWjlisyHLYuBps-39" value="" style="html=1;points=[];perimeter=orthogonalPerimeter;outlineConnect=0;targetShapes=umlLifeline;portConstraint=eastwest;newEdgeStyle={&quot;edgeStyle&quot;:&quot;elbowEdgeStyle&quot;,&quot;elbow&quot;:&quot;vertical&quot;,&quot;curved&quot;:0,&quot;rounded&quot;:0};" vertex="1" parent="1">
          <mxGeometry x="870" y="100" width="10" height="260" as="geometry" />
        </mxCell>
      </root>
    </mxGraphModel>
  </diagram>
</mxfile>
